<svg xmlns="http://www.w3.org/2000/svg" version="1.1" xmlns:xlink="http://www.w3.org/1999/xlink" width="30" height="30" x="0" y="0" viewBox="0 0 512 512" style="enable-background:new 0 0 512 512" xml:space="preserve" class=""><g><path d="M445.2 323.8c-.8-.8-1.1-1.1-40.4-31.3-11.8-11-27.1-17-43.2-17s-31.7 6.1-43.5 17.3l-19.9 16.8c-1.7 1.4-3.8 2.2-6 2.2-1.4 0-2.8-.3-4.1-1-37.4-18.8-68.4-49.8-87.1-87.4-1.6-3.3-1.1-7.2 1.2-10.1l16.7-19.8c23-24.4 23.1-62.2.3-86.7C189 67.6 188.7 67.3 188 66.5c-11.9-12-27.8-18.6-44.8-18.6s-31.8 6.2-43.5 17.4l-18.5 16c-.5.4-.9.8-1.3 1.3-19.9 23.1-30.5 50.3-31.5 81-.9 27.2 5.8 56.6 19.8 87.2 50.2 109.5 185.2 213.1 277.7 213.1 1.3 0 2.5 0 3.7-.1h.4c30.1 0 59.4-12.3 80.5-33.7l.6-.6 14.5-16.7c24.3-24.5 24.2-64.4-.4-89zm-9.1 80.3-14.8 17c-18.9 19.2-44.9 30-71.9 29.8C217.1 455.3-20.7 219.3 89.7 91.2L108.4 75c19.7-19 51-18.7 70.3.8.5.5 30.6 39.6 30.6 39.6 18.6 19.5 18.5 50.2-.1 69.6l-16.9 20c-5.7 6.8-6.9 16.3-2.9 24.3 20.1 40.3 52.7 73 93 93.2 8 4 17.5 2.8 24.3-2.9l20.2-17c19.4-18.6 50.1-18.7 69.6-.1 0 0 39.1 30.1 39.6 30.6 19.6 19.6 19.6 51.4 0 71zM298.3 249.5c16.1 0 29.3-13.1 29.3-29.3V83.7c0-16.1-13.1-29.3-29.3-29.3-16.1 0-29.3 13.1-29.3 29.3v136.6c.1 16.1 13.2 29.2 29.3 29.2zM282.1 83.7c0-9 7.3-16.3 16.3-16.3s16.3 7.3 16.3 16.3v136.6c0 9-7.3 16.3-16.3 16.3s-16.3-7.3-16.3-16.3zm87.8 165.8c16.1 0 29.3-13.1 29.3-29.3V83.7c0-16.1-13.1-29.3-29.3-29.3s-29.3 13.1-29.3 29.3v136.6c0 16.1 13.1 29.2 29.3 29.2zM353.6 83.7c0-9 7.3-16.3 16.3-16.3s16.3 7.3 16.3 16.3v136.6c0 9-7.3 16.3-16.3 16.3s-16.3-7.3-16.3-16.3V83.7z" fill="#a8a6b8" opacity="1" data-original="#000000" class=""></path></g></svg>